
<svg xmlns="http://www.w3.org/2000/svg" viewBox="0 0 754.78 452.95"><defs><style>.cls-1{opacity:0.14;}.cls-2{fill:#04cba0;}.cls-3{fill:#222221;}.cls-4{fill:#b3b3b3;}.cls-5{fill:#3e3e3d;}.cls-6{fill:#fff;}.cls-7{fill:#db9022;}</style></defs><title>Asset 1</title><g id="Layer_2" data-name="Layer 2"><g id="Layer_1-2" data-name="Layer 1"><g class="cls-1"><path class="cls-2" d="M417.18,40.16C335.79,66.13,78.11-62,98.19,113c3.14,26,19.92,62.78,5.76,87.08C93.68,218.29,74.84,229,56.73,236,9.3,255.3-8.37,291.5,3.65,343.15,35.77,482.46,210.7,449.34,302.52,408.06c65.31-30.71,142.33-36,210-10,53,21.15,86,65.54,148.17,52.55,55.15-11.09,63.48-63.13,47.37-111.6-9.15-30-15.72-42.64,2.43-71.59,15.28-28.75,42.21-50.52,44.27-84.21.46-36.47-16.3-73.21-48.74-87-26.53-11.29-50.59-6.74-76.93-13.68-58.35-16.41-95.88-107.21-168.3-76C442.73,15,432.56,34.65,413,40.36"/></g><path class="cls-3" d="M203.55,253.91c-9.11,3.22-13.54,2.35-17.55-6.24-2.62-5.64-4.7-11.4-8.32-16.47s-8.15-9.94-14.07-11.62c-5.45-1.54-11,.5-16.47.91-13.25,1-29.67-2.08-31.88-17-1.6-10.89-1.47-20.79-6.23-31-2.35-5-9.76-.64-7.43,4.33,5.28,11.29,2.66,23.68,6.84,35,4.52,12.29,17.8,15.51,29.53,16.91,7.32.87,16.63-2.75,23.45-.75,8.61,2.51,13,14.18,16.28,21.62,5.85,13.46,14,17.7,28.24,12.65,5.18-1.83,2.95-10.11-2.26-8.32Z"/><path class="cls-3" d="M112.89,160.86a25.57,25.57,0,0,1-9.44,7.36c-3.93,2-.47,7.9,3.48,5.93a33.36,33.36,0,0,0,11.89-9.82,3.46,3.46,0,0,0-1.21-4.7,3.54,3.54,0,0,0-4.7,1.23Z"/><path class="cls-3" d="M100.63,151.73c0,7.26,1.06,14.56,1.14,21.73a3.43,3.43,0,1,0,6.86,0c0-7.26-1.14-14.56-1.14-21.73a3.43,3.43,0,1,0-6.86,0Z"/><path class="cls-3" d="M89,158.74c4.6,5.74,9.26,11.45,15.56,15.41,3.76,2.32,7.21-3.6,3.47-5.93-5.76-3.6-10-9.11-14.18-14.33C91.14,150.44,86.3,155.33,89,158.74Z"/><path class="cls-3" d="M83.33,169a22.32,22.32,0,0,0,22.87,5.45c4.16-1.29,2.43-7.9-1.81-6.61a15.38,15.38,0,0,1-16.12-3.68c-3.2-3-8.06,1.8-4.84,4.84Z"/><path class="cls-3" d="M554.26,275.24c.32-11.08,4.16-14.91,14.87-15.82,6.86-.59,14.41,0,21.13-1.77,11.08-3,9.42-16,14.55-24.18,7.05-11.4,21.94-9.86,33.27-13.48,12.35-4,17.32-13.45,18.07-26,.33-5.51-8.32-5.49-8.59,0-1.06,17.76-14,17.93-28.09,21.11-12.48,2.78-20.92,9.23-25.26,21.42-1.62,4.59-1.73,10.52-6.14,12.8-5.55,2.87-15.78,1-22,1.75-14.55,1.71-19.85,9.86-20.25,24.12-.15,5.53,8.32,5.53,8.59,0Z"/><path class="cls-3" d="M635.94,183.52a27,27,0,0,0,15,15,3.45,3.45,0,0,0,4.16-2.39,3.52,3.52,0,0,0-2.41-4.16,19.39,19.39,0,0,1-10.17-10.18,3.56,3.56,0,0,0-4.16-2.4,3.47,3.47,0,0,0-2.41,4.16Z"/><path class="cls-3" d="M646.13,174.6v17.16a3.43,3.43,0,0,0,6.86,0V174.6a3.43,3.43,0,0,0-6.86,0Z"/><path class="cls-3" d="M657.67,176a31.69,31.69,0,0,1-10.55,14.56c-3.43,2.79,1.46,7.61,4.85,4.84a38.1,38.1,0,0,0,12.33-17.52c1.43-4.16-5.18-6-6.63-1.83Z"/><path class="cls-3" d="M666,183.21a26.34,26.34,0,0,1-12.81,9.86c-4,1.66-2.27,8.31,1.81,6.61a34.21,34.21,0,0,0,16.92-13C674.32,182.92,668.38,179.49,666,183.21Z"/><path class="cls-4" d="M595.23,399.46c0,6-44.92,7.73-49.78,7.73H209.29c-4.87,0-49.78-1.74-49.78-7.73l41-61.45c0-6,3.93-10.87,8.8-10.87H545.45c4.86,0,8.79,4.86,8.79,10.87Z"/><polygon class="cls-5" points="308.24 385.82 221.85 385.82 236.94 349.22 315.1 349.22 308.24 385.82"/><polygon class="cls-5" points="446.49 385.82 532.91 385.82 517.77 349.22 439.63 349.22 446.49 385.82"/><polygon class="cls-5" points="542.5 385.82 572.94 385.82 548.03 349.22 525.09 349.22 542.5 385.82"/><polygon class="cls-5" points="212.24 385.82 181.82 385.82 206.71 349.22 229.67 349.22 212.24 385.82"/><polygon class="cls-5" points="438.9 385.82 315.83 385.82 322.69 349.22 432.04 349.22 438.9 385.82"/><rect class="cls-4" x="189.33" y="355.92" width="376.1" height="5.59"/><rect class="cls-4" x="185.25" y="369.64" width="384.25" height="5.59"/><rect class="cls-5" x="196.11" y="95.94" width="362.52" height="242.61" rx="8.8" ry="8.8"/><path class="cls-6" d="M377.38,108.17a3.66,3.66,0,1,0-3.66-3.66A3.66,3.66,0,0,0,377.38,108.17Z"/><rect class="cls-6" x="221.47" y="114.53" width="311.77" height="208.64" rx="7.55" ry="7.55"/><path class="cls-7" d="M499.74,66v75.48c0,7.36,11.44,7.38,11.44,0V66C511.18,58.6,499.74,58.6,499.74,66Z"/><path class="cls-7" d="M505.46,170.61c11,0,11-17.15,0-17.15S494.4,170.61,505.46,170.61Z"/></g></g></svg>